<svg width="57" height="51" viewBox="0 0 57 51" fill="none" xmlns="http://www.w3.org/2000/svg">
<g clip-path="url(#clip0_736_10618)">
<path d="M19.4099 1.13958C21.8171 1.23926 24.2217 1.1944 26.6264 1.10469C27.1647 1.08476 27.7029 1.0424 28.2387 0.990066C28.4306 0.970131 28.5352 0.987574 28.5003 1.20686C28.4953 1.23427 28.5003 1.26168 28.5003 1.28909C28.4978 1.63547 28.6075 2.04165 28.4605 2.31077C28.306 2.59485 27.8425 2.50016 27.516 2.57242C24.6155 3.20287 22.3403 4.80766 20.5362 7.1027C16.6214 12.079 12.7316 17.0753 8.82179 22.0566C8.6324 22.2958 8.74952 22.4104 8.87163 22.5799C12.9932 28.3487 17.1123 34.1174 21.2315 39.8862C22.5571 41.7426 23.8978 43.5866 25.1986 45.458C26.6165 47.5014 28.5302 48.8097 30.9249 49.4252C31.1791 49.4899 31.2663 49.5846 31.2464 49.8388C31.219 50.1951 31.3511 50.6562 31.1741 50.8779C31.0047 51.0897 30.5312 50.8829 30.1923 50.868C27.2619 50.7334 24.3314 50.7209 21.3984 50.7434C19.5743 50.7558 17.7503 50.7982 15.9312 50.9377C15.5848 50.9651 15.4179 50.9128 15.4702 50.5166C15.5125 50.2051 15.378 49.8014 15.53 49.5896C15.6895 49.3678 16.1206 49.4825 16.4296 49.4351C16.9877 49.3479 17.5509 49.2607 18.0618 49.0015C18.6922 48.6826 18.8791 48.234 18.6623 47.5612C18.5377 47.1775 18.3409 46.8311 18.1191 46.4947C14.5307 41.0848 10.9399 35.6748 7.34908 30.2674C6.78341 29.4152 6.16542 28.6028 5.48763 27.8303C4.37873 26.5669 2.97828 25.9215 1.32366 25.782C0.979778 25.7546 0.635895 25.7122 0.289521 25.7023C0.0976447 25.6973 0.0328552 25.6499 0.0203957 25.4456C-0.0468856 24.2794 -0.0518693 24.2869 1.07945 24.1947C3.92271 23.9679 6.31494 22.7793 8.10412 20.5789C10.8452 17.2123 13.5315 13.8009 16.148 10.3347C17.0052 9.19839 17.7627 7.9948 18.3109 6.6716C18.5178 6.17322 18.6797 5.65989 18.7047 5.11416C18.752 4.08999 18.3134 3.36236 17.3765 2.93873C16.5816 2.5799 15.7368 2.45032 14.8746 2.43537C14.4884 2.42789 14.3339 2.33569 14.3538 1.89961C14.3962 0.930261 14.3663 0.952688 15.3456 1.00003C16.7012 1.0723 18.0568 1.09722 19.4099 1.13958Z" fill="white"/>
<path d="M44.4114 1.10407C47.3693 1.10407 50.3297 1.11403 53.2876 1.09908C54.379 1.0941 55.4705 1.05672 56.5594 0.979471C56.9606 0.949568 57.0154 1.05423 56.9756 1.41306C56.7363 3.5561 56.6292 5.7091 56.5569 7.86459C56.4722 10.3814 56.5295 12.8933 56.7189 15.4026C56.7463 15.7515 56.6666 15.8785 56.3152 15.8237C56.1657 15.8013 56.0112 15.8187 55.8592 15.8187C55.0593 15.8187 55.0792 15.8163 54.9895 14.9964C54.7378 12.674 54.3965 10.369 53.7685 8.11129C52.9063 5.00638 50.848 3.31438 47.6982 2.86086C46.5046 2.68891 45.3085 2.59921 44.1049 2.61416C40.6735 2.65901 37.2447 2.54189 33.8158 2.52943C33.2228 2.52694 32.6247 2.50701 32.0366 2.6017C31.8323 2.63409 31.75 2.60419 31.7426 2.35998C31.7027 1.1863 31.6927 1.1863 32.8714 1.1863C36.7189 1.1863 40.5639 1.1863 44.4114 1.1863C44.4114 1.15889 44.4114 1.13148 44.4114 1.10407Z" fill="white"/>
<path d="M36.1929 25.7837C37.4513 25.7837 38.7122 25.826 39.9681 25.7712C41.2789 25.7139 42.5298 25.3899 43.4219 24.3309C44.3389 23.2419 44.8597 21.9536 45.1014 20.5556C45.3108 19.3321 45.5026 18.1036 45.697 16.8751C45.7369 16.6184 45.7967 16.449 46.1306 16.4889C46.5393 16.5362 47.09 16.3618 47.3292 16.5711C47.5759 16.7854 47.3616 17.3461 47.3292 17.7498C47.0601 21.1338 47.1921 24.5203 47.2071 27.9068C47.2196 30.6553 47.3865 33.4014 47.6033 36.14C47.6307 36.4739 47.5609 36.6184 47.1971 36.5736C46.9106 36.5387 46.6165 36.5487 46.3275 36.5711C46.0384 36.596 45.9661 36.4814 45.9288 36.2048C45.7095 34.5626 45.5126 32.918 45.1114 31.3057C44.9918 30.8223 44.7875 30.3712 44.5632 29.9277C43.6561 28.131 42.1087 27.371 40.1874 27.2863C37.5909 27.1691 34.9893 27.2539 32.3903 27.2489C32.0264 27.2489 31.9243 27.1667 31.9342 26.7954C31.9617 25.7986 31.9417 25.7986 32.9559 25.7986C34.0349 25.7986 35.1139 25.7986 36.1929 25.7986C36.1929 25.7911 36.1929 25.7861 36.1929 25.7837Z" fill="white"/>
</g>
<defs>
<clipPath id="clip0_736_10618">
<rect width="56.9923" height="50" fill="white" transform="translate(0 0.974609)"/>
</clipPath>
</defs>
</svg>
